<?xml version="1.0" encoding="UTF-8"?>
<!-- Generator: Adobe Illustrator 22.0.1, SVG Export Plug-In . SVG Version: 6.00 Build 0)  -->
<svg version="1.1" id="Layer_1" xmlns="http://www.w3.org/2000/svg" xmlns:xlink="http://www.w3.org/1999/xlink" x="0px" y="0px" viewBox="0 0 231.5 61.5" style="enable-background:new 0 0 231.5 61.5;" xml:space="preserve">
<style type="text/css">
	.st0{opacity:0.6;fill:#00A9CE;}
	.st1{opacity:0.8;fill:#00A9CE;}
	.st2{opacity:0.5;fill:#00A9CE;}
	.st3{fill:#00A9CE;}
</style>
<g>
	<g>
		<path d="M116.9,50.9l-1.7,0l-0.9-5.8h0l-1.7,4.5l-1.2,0l-1.7-4.5h0l-0.9,5.8l-1.7,0l1.6-9h1.2l2,5.1h0l2.1-5.1h1.2L116.9,50.9z"/>
		<path d="M109.4,35.4l-4.2,0L93.4,18.6h0l0,16.7l-4.5,0l0-24.4l4.2,0l11.9,16.8h0l0-16.8l4.5,0L109.4,35.4z"/>
		<path d="M139.4,23.2c0,7.6-5.5,12.7-12.8,12.7c-7.3,0-12.8-5.2-12.8-12.7c0-7.6,5.5-12.7,12.8-12.7    C133.9,10.4,139.4,15.6,139.4,23.2z M118.8,23.2c0,4.8,3.3,8.2,7.9,8.2c4.6,0,7.9-3.3,7.9-8.2c0-4.8-3.3-8.2-7.9-8.2    C122.1,15,118.8,18.3,118.8,23.2z"/>
		<path d="M150.4,25.6l-1.7,0v9.7l-4.5,0l0-24.4l9,0c4.8,0,7.9,3,7.9,7.4c0,3.6-2.1,6.3-5.7,7.1l7.2,9.9l-5.6,0L150.4,25.6z     M148.7,21.7l3.8,0c2.6,0,3.8-1.2,3.8-3.3c0-2-1.2-3.3-3.8-3.3l-3.8,0V21.7z"/>
		<path d="M187,23.2c0,7.6-5.3,12.2-12.7,12.2l-7.8,0l0-24.4l7.8,0C181.7,11,187,15.6,187,23.2z M171,15.1l0,16.2l3.6,0    c4.4,0,7.7-2.8,7.7-8.1c0-5.3-3.3-8.1-7.7-8.1L171,15.1z"/>
		<path d="M196.3,35.4l-4.5,0l0-24.4l4.5,0L196.3,35.4z"/>
		<path d="M201.1,23.2c0-7.7,5.5-12.7,13.2-12.7c3.8,0,6.5,1.2,8.7,2.7l-2.6,3.9c-1.5-1-3.6-2-6.2-2c-4.7,0-8.3,3.2-8.3,8.2    c0,5,3.5,8.2,8.3,8.2c2.6,0,4.7-1,6.2-2l2.6,3.9c-2.2,1.5-5,2.7-8.7,2.7C206.6,35.9,201.1,30.9,201.1,23.2z"/>
		<path d="M88.3,50.2l0.7-1.5c0.7,0.4,1.6,0.8,2.4,0.8c0.9,0,1.3-0.4,1.3-0.9c0-0.5-0.3-0.8-0.9-1.2l-1.5-1c-1-0.7-1.4-1.4-1.4-2.4    c0-1.4,1-2.3,2.7-2.3c0.9,0,1.8,0.2,2.6,0.6l-0.7,1.5c-0.7-0.3-1.3-0.6-1.9-0.6c-0.7,0-0.9,0.3-0.9,0.7c0,0.3,0.2,0.6,0.7,0.9    l1.6,1.1c1,0.7,1.5,1.4,1.5,2.5c0,1.7-1.2,2.6-3.1,2.6C90.3,51.1,89.2,50.7,88.3,50.2"/>
		<path d="M103.6,49.3l0,1.5l-5.4,0l0-9l5.4,0v1.5l-3.7,0l0,1.8l3.4,0v1.5l-3.4,0v2.6L103.6,49.3z"/>
		<path d="M122.2,50.9h-1.7l0-9h1.7L122.2,50.9z"/>
		<path d="M122.2,50.9h-1.7l0-9l1.7,0L122.2,50.9z"/>
		<path d="M125.6,46.4c0-2.9,2-4.7,4.9-4.7c1.4,0,2.4,0.4,3.2,1l-1,1.4c-0.6-0.4-1.3-0.7-2.3-0.7c-1.8,0-3.1,1.2-3.1,3    c0,1.8,1.3,3,3.1,3c1,0,1.7-0.4,2.3-0.7l1,1.4c-0.8,0.6-1.8,1-3.2,1C127.6,51.1,125.6,49.2,125.6,46.4z"/>
		<path d="M145.9,46.4c0,2.8-2.1,4.7-4.7,4.7c-2.7,0-4.7-1.9-4.7-4.7s2-4.7,4.7-4.7C143.9,41.6,145.9,43.6,145.9,46.4z M138.3,46.4    c0,1.8,1.2,3,2.9,3c1.7,0,2.9-1.2,2.9-3c0-1.8-1.2-3-2.9-3C139.5,43.3,138.3,44.6,138.3,46.4z"/>
		<path d="M157,50.9l-1.5,0l-4.4-6.2h0l0,6.2l-1.7,0v-9l1.5,0l4.4,6.2h0l0-6.2l1.7,0V50.9z"/>
		<path d="M168.7,46.3c0,2.8-2,4.5-4.7,4.5l-2.9,0l0-9l2.9,0C166.7,41.8,168.7,43.5,168.7,46.3z M162.7,43.3l0,6l1.3,0    c1.6,0,2.8-1,2.8-3c0-1.9-1.2-3-2.8-3H162.7z"/>
		<path d="M179.6,47.3c0,2.3-1.4,3.7-3.7,3.7c-2.4,0-3.7-1.5-3.7-3.7l0-5.5l1.7,0l0,5.4c0,1.3,0.8,2.1,2,2.1c1.2,0,2-0.8,2-2.1    l0-5.4l1.7,0L179.6,47.3z"/>
		<path d="M183,46.3c0-2.9,2-4.7,4.9-4.7c1.4,0,2.4,0.4,3.2,1l-1,1.4c-0.6-0.4-1.3-0.7-2.3-0.7c-1.8,0-3.1,1.2-3.1,3    c0,1.8,1.3,3,3.1,3c1,0,1.7-0.4,2.3-0.7l1,1.4c-0.8,0.6-1.8,1-3.2,1C185,51,183,49.2,183,46.3z"/>
		<path d="M200.4,43.4l-2.5,0l0,7.5l-1.7,0l0-7.5l-2.5,0v-1.5l6.6,0V43.4z"/>
		<path d="M212.4,46.3c0,2.8-2.1,4.7-4.7,4.7c-2.7,0-4.7-1.9-4.7-4.7s2-4.7,4.7-4.7C210.3,41.6,212.4,43.5,212.4,46.3z M204.7,46.3    c0,1.8,1.2,3,2.9,3c1.7,0,2.9-1.2,2.9-3c0-1.8-1.2-3-2.9-3C206,43.3,204.7,44.5,204.7,46.3z"/>
		<path d="M218.1,47.2l-0.6,0v3.6l-1.7,0l0-9l3.3,0c1.8,0,2.9,1.1,2.9,2.7c0,1.3-0.8,2.4-2.1,2.6l2.7,3.7l-2.1,0L218.1,47.2z     M217.4,45.8h1.4c1,0,1.4-0.5,1.4-1.2c0-0.7-0.5-1.2-1.4-1.2l-1.4,0V45.8z"/>
		<g>
			<g>
				<g>
					<g>
						<path d="M228,14v1.3h-0.2v-2.8l1.2,0c0.5,0,0.9,0.2,0.9,0.7c0,0.3-0.1,0.6-0.5,0.7c0.2,0.1,0.5,0.2,0.5,0.7v0.1        c0,0.2,0,0.5,0,0.6l-0.3,0c0-0.1,0-0.4,0-0.6v-0.1c0-0.5-0.2-0.6-0.7-0.6L228,14z M228,13.7l0.9,0c0.5,0,0.8-0.2,0.8-0.6        c0-0.4-0.3-0.5-0.7-0.5l-0.9,0L228,13.7z"/>
						<path d="M230,15.3h-0.4l0-0.1c0-0.1,0-0.3,0-0.5l0-0.2c0-0.4-0.1-0.5-0.7-0.5l-0.8,0v1.3l-0.4,0l0-3l1.3,0c0.6,0,1,0.3,1,0.8        c0,0.3-0.1,0.6-0.4,0.7c0.2,0.1,0.3,0.4,0.3,0.7v0.1C229.9,14.9,229.9,15.1,230,15.3L230,15.3z M229.7,15.2h0.1        c0-0.1,0-0.3,0-0.5v-0.1c0-0.5-0.2-0.6-0.4-0.6l-0.3-0.1l0.3-0.1c0.3-0.1,0.5-0.3,0.5-0.6c0-0.6-0.6-0.7-0.9-0.7l-1.2,0v2.7        l0.1,0v-1.3l1,0c0.5,0,0.8,0.1,0.8,0.7l0,0.2C229.7,14.9,229.7,15.1,229.7,15.2z M228.9,13.8l-1,0v-1.2l1,0        c0.7,0,0.8,0.3,0.8,0.6C229.8,13.6,229.5,13.8,228.9,13.8z M228.1,13.7l0.9,0c0.6,0,0.7-0.3,0.7-0.5c0-0.1,0-0.4-0.7-0.4        l-0.9,0V13.7z"/>
					</g>
				</g>
				<g>
					<g>
						<path d="M228.8,16.5c-1.5,0-2.7-1.2-2.7-2.7c0-1.5,1.2-2.7,2.7-2.7c1.5,0,2.7,1.2,2.7,2.7C231.5,15.3,230.3,16.5,228.8,16.5z         M228.8,11.4c-1.3,0-2.4,1.1-2.4,2.4c0,1.3,1.1,2.4,2.4,2.4c1.3,0,2.4-1.1,2.4-2.4C231.2,12.5,230.1,11.4,228.8,11.4z"/>
						<path d="M228.8,16.5c-1.5,0-2.7-1.2-2.7-2.7c0-1.5,1.2-2.7,2.7-2.7s2.7,1.2,2.7,2.7S230.3,16.5,228.8,16.5z M228.8,11.2        c-1.4,0-2.6,1.2-2.6,2.6s1.2,2.6,2.6,2.6c1.4,0,2.6-1.2,2.6-2.6C231.4,12.4,230.2,11.2,228.8,11.2z M228.8,16.3        c-1.4,0-2.5-1.1-2.5-2.5s1.1-2.5,2.5-2.5c1.4,0,2.5,1.1,2.5,2.5S230.2,16.3,228.8,16.3z M228.8,11.5c-1.3,0-2.3,1.1-2.3,2.3        s1.1,2.3,2.3,2.3s2.3-1.1,2.3-2.3S230.1,11.5,228.8,11.5z"/>
					</g>
				</g>
			</g>
		</g>
	</g>
	<g>
		<g>
			<path class="st0" d="M50.2,0.4c0,0-0.1,0-0.1,0.1c-0.2,0.1-0.3,0.1-0.5,0.2l-15,8.6l17.4,10.1V0C51.5,0,50.8,0.1,50.2,0.4z"/>
			<path class="st1" d="M19.6,61l15.8-9.1L18,41.9l0,19.6C18.6,61.5,19.1,61.3,19.6,61z"/>
			<path class="st2" d="M69.9,50.7L34.2,30.1l0,0l-1.7-1L0.4,10.6C0.1,11.2,0,11.8,0,12.4c0,0.1,0,0.3,0,0.4v36.9     c0,1.2,0.6,2.2,1.7,2.8l14.7,8.6c0.5,0.3,1.1,0.4,1.6,0.4l0-18.9l0-0.7l33.3,19.2c0.1,0.1,0.2,0.1,0.3,0.1c0,0,0.1,0,0.1,0     c1,0.4,1.8,0.1,2.6-0.5l5.6-3.2l8.9-5.3C69.3,51.9,69.7,51.3,69.9,50.7z"/>
			<path class="st3" d="M70.1,26.4v-14c0-1.8-1-3.4-2.5-4.3L54.6,0.6C53.8,0.2,53,0,52.1,0v19.4L23,2.5l-3.2-1.8     c-1.4-0.8-2.7-0.9-4.1-0.2c0,0-0.1,0-0.1,0.1c-0.2,0.1-0.3,0.2-0.5,0.3l-5.1,3L2.5,8.1c0,0,0,0,0,0c-1,0.6-1.8,1.5-2.2,2.5     c0,0,32.2,18.6,32.2,18.6l1.7,1l0,0l35.7,20.6c0.2-0.7,0.2-1.9,0.2-1.9V26.4z"/>
		</g>
	</g>
</g>
</svg>